<?xml version="1.0" standalone="no"?>
<!DOCTYPE svg PUBLIC "-//W3C//DTD SVG 20010904//EN"
 "http://www.w3.org/TR/2001/REC-SVG-20010904/DTD/svg10.dtd">
<svg version="1.0" xmlns="http://www.w3.org/2000/svg"
 width="42.000000pt" height="42.000000pt" viewBox="0 0 42.000000 42.000000"
 preserveAspectRatio="xMidYMid meet">

<g transform="translate(0.000000,42.000000) scale(0.100000,-0.100000)"
fill="#000000" stroke="none">
<path d="M110 383 c-23 -9 -60 -45 -76 -75 -30 -58 -3 -147 54 -180 34 -20
103 -24 133 -7 18 9 28 3 75 -41 56 -53 78 -59 98 -27 9 16 3 26 -46 70 l-58
52 11 41 c22 86 -48 175 -136 173 -22 0 -47 -3 -55 -6z m114 -68 c20 -18 26
-34 26 -65 0 -86 -90 -121 -152 -60 -26 27 -30 36 -25 68 12 76 96 108 151 57z"/>
</g>
</svg>
